<?xml version="1.0" encoding="UTF-8" standalone="no"?>
<svg
   xmlns:dc="http://purl.org/dc/elements/1.1/"
   xmlns:cc="http://creativecommons.org/ns#"
   xmlns:rdf="http://www.w3.org/1999/02/22-rdf-syntax-ns#"
   xmlns:svg="http://www.w3.org/2000/svg"
   xmlns="http://www.w3.org/2000/svg"
   xmlns:sodipodi="http://sodipodi.sourceforge.net/DTD/sodipodi-0.dtd"
   xmlns:inkscape="http://www.inkscape.org/namespaces/inkscape"
   width="250"
   height="250"
   viewBox="0 0 600 600"
   version="1.0"
   id="svg2"
   sodipodi:version="0.32"
   inkscape:version="0.46"
   sodipodi:docname="United_Nations_Human_Rights_Council_Logo.svg"
   inkscape:output_extension="org.inkscape.output.svg.inkscape">
  <metadata
     id="metadata42">
    <rdf:RDF>
      <cc:Work
         rdf:about="">
        <dc:format>image/svg+xml</dc:format>
        <dc:type
           rdf:resource="http://purl.org/dc/dcmitype/StillImage" />
      </cc:Work>
    </rdf:RDF>
  </metadata>
  <defs
     id="defs40">
    <inkscape:perspective
       sodipodi:type="inkscape:persp3d"
       inkscape:vp_x="0 : 375 : 1"
       inkscape:vp_y="0 : 1000 : 0"
       inkscape:vp_z="750 : 375 : 1"
       inkscape:persp3d-origin="375 : 250 : 1"
       id="perspective44" />
  </defs>
  <sodipodi:namedview
     inkscape:window-height="669"
     inkscape:window-width="640"
     inkscape:pageshadow="2"
     inkscape:pageopacity="0.0"
     guidetolerance="10.0"
     gridtolerance="10.0"
     objecttolerance="10.0"
     borderopacity="1.0"
     bordercolor="#666666"
     pagecolor="#ffffff"
     id="base"
     showgrid="false"
     inkscape:zoom="0.616"
     inkscape:cx="375"
     inkscape:cy="375"
     inkscape:window-x="69"
     inkscape:window-y="95"
     inkscape:current-layer="svg2" />
  <g
     id="#0a6aaeff">
    <path
       d="M 331.28,20.21 C 333.51,21.92 334.67,24.52 336.16,26.81 C 344.35,40.01 352.51,53.22 360.69,66.43 C 366.62,76.58 373.63,86.03 380.26,95.72 C 401.1,125.22 420.12,155.94 440.14,185.99 C 446.62,198.19 453.41,210.23 459.66,222.55 C 463.21,231.67 467.29,240.63 470.04,250.03 C 472.52,261.22 476.97,272 477.77,283.52 C 479.28,292.92 478.43,302.46 478.65,311.93 C 479.03,323.69 477.48,335.39 476.47,347.08 C 474.8,354.08 473.36,361.14 471.42,368.08 C 469.35,374.27 466.63,380.23 464.3,386.33 C 461.75,393.34 457.78,399.71 454.32,406.3 C 449.54,415.82 442.79,424.14 436.89,432.96 C 432.18,437.57 428.22,442.87 423.34,447.33 C 417.1,454.18 409.36,459.36 402.11,465.05 C 394.29,469.98 386.3,474.66 378.35,479.37 C 371.85,482.28 365.16,484.75 358.55,487.39 C 349.09,490 339.48,492.06 329.94,494.33 C 319.73,495.58 309.59,498 299.28,497.99 C 301.63,495.42 303.59,492.52 306.14,490.13 C 310.74,486.15 312.01,479.9 314.8,474.73 C 316.65,470.59 319.62,466.75 319.87,462.07 C 320.59,454.38 322.53,446.79 322.13,439.02 C 321.84,431.6 323.13,423.91 320.27,416.82 C 318.42,406.56 313.36,397.38 309.23,387.94 C 297.45,368.18 284.94,348.86 272.74,329.36 C 265.92,317.16 258.94,305.05 252.35,292.73 C 248.97,284.24 245.74,275.69 242.6,267.12 C 237.24,246.15 232.51,224.71 233.07,202.94 C 234.14,191.81 235.5,180.71 236.86,169.61 C 238.91,156.65 241.17,143.73 243.27,130.78 C 243.49,129.14 244.05,127.57 244.75,126.07 C 245.67,139.36 247.37,152.62 250.65,165.55 C 254.07,176.45 258.4,187.05 262.6,197.68 C 266.35,205.17 269.22,213.14 273.87,220.16 C 282.63,232.32 290.72,245.03 300.43,256.48 C 303.53,259.46 306.1,262.9 309.1,265.98 C 318.35,277.02 329.69,286.13 338.92,297.2 C 342.24,300.44 345.61,303.7 348.22,307.58 C 352.34,314.15 356.78,320.51 361.04,327 C 366.54,336.67 371.46,346.65 376.36,356.63 C 379.92,364.19 382.27,372.46 387.29,379.25 C 388.01,371.27 386.06,363.43 385.31,355.53 C 383.85,342.81 379.53,330.72 375.31,318.71 C 373.49,313.75 370.8,309.19 368.56,304.42 C 363.5,292.8 357.39,281.67 351.54,270.43 C 347.36,260.52 341.88,251.22 337.7,241.32 C 332.93,232.25 328.99,222.81 324.27,213.72 C 319,201.47 313.16,189.45 308.52,176.94 C 306.04,169.55 302.82,162.41 300.71,154.9 C 298.8,145.2 296.45,135.59 294.65,125.87 C 292.2,107.28 288.96,88.63 289.99,69.8 C 291.48,72.66 292.26,75.79 292.99,78.91 C 294.39,84.94 296.66,90.72 298.55,96.61 C 299.99,100.75 300.75,105.14 302.78,109.06 C 307.44,118.14 311.71,127.41 316.76,136.28 C 318.67,141.03 322.22,144.77 325.03,148.98 C 332.3,158.83 338.78,169.22 345.68,179.32 C 358.28,196.35 372.18,212.42 384.02,230 C 390.69,239.11 396.54,248.77 402.63,258.27 C 406.23,264.35 410.78,269.93 413.28,276.6 C 417.02,284.53 421.4,292.15 424.63,300.31 C 428.76,310.67 433.2,320.95 436.13,331.73 C 437.5,336.61 438.87,341.49 440.45,346.31 C 440.69,339.79 443.27,333.57 442.9,327.01 C 442.71,316.01 443.31,304.98 442.28,294 C 440.04,275.36 432.4,257.99 425.04,240.9 C 419.79,227.9 412.46,215.87 406.96,202.99 C 396.22,181.8 386.96,159.92 376.25,138.72 C 371.08,129.48 366.37,119.99 361.19,110.75 C 358.34,105.01 356.17,98.97 353.58,93.11 C 350.22,84.59 346.17,76.33 343.62,67.51 C 340.4,56.13 335.91,45.11 333.68,33.47 C 332.82,29.06 331.13,24.77 331.28,20.21 z"
       id="path5"
       style="opacity:1;fill:#0a6aae" />
    <path
       d="M 450.57,162.4 C 463.31,167.12 476.76,170.41 488.35,177.74 C 500.66,185.54 509.58,197.85 514.78,211.32 C 517.31,217.23 518.32,223.7 521.45,229.36 C 503.04,217.32 486.45,202.43 472.81,185.15 C 470.27,182.04 468.28,178.47 465.26,175.77 C 460.35,171.33 455.42,166.91 450.57,162.4 z"
       id="path7"
       style="opacity:1;fill:#0a6aae" />
    <path
       d="M 112.2,185.23 C 124.8,174.99 140.61,170.19 155.7,164.93 C 141.75,175.98 131.25,190.5 120.27,204.33 C 110.54,215.41 97.69,223 86.37,232.27 C 91.59,222.45 92.55,210.91 98.39,201.38 C 102.34,195.49 106.57,189.64 112.2,185.23 z"
       id="path9"
       style="opacity:1;fill:#0a6aae" />
    <path
       d="M 505.38,186.16 C 517.41,188.62 527.99,196.04 535.64,205.49 C 541.14,212.28 545.23,220.37 546.51,229.08 C 549.26,246.56 543.91,264.37 547.84,281.77 C 539.66,267.6 525.55,258.62 512.54,249.39 C 504.13,243.3 495.33,237.25 489.26,228.65 C 483.67,220.83 480.61,211.54 478.71,202.2 C 481.44,207.01 484.74,211.53 488.99,215.12 C 498.8,223.61 510.85,228.94 521.01,236.95 C 524.75,239.86 527.95,243.38 531.24,246.76 C 534.73,250.36 536.06,255.44 539.44,259.1 C 538.46,256.05 536.89,253.25 535.71,250.29 C 531,238.87 528.29,226.78 524.8,214.96 C 523.2,209.6 521.75,204.07 518.6,199.37 C 515.27,194.01 510.55,189.7 505.38,186.16 z"
       id="path11"
       style="opacity:1;fill:#0a6aae" />
    <path
       d="M 75.15,205.2 C 82.11,197.53 91.26,191.79 101.38,189.43 C 95.61,193.26 90.66,198.4 87.59,204.66 C 81.66,216.49 80.82,229.98 76.54,242.37 C 74.42,249.19 70.91,255.53 69.41,262.54 C 73.83,254.31 79.25,246.49 86.53,240.49 C 96.71,232.16 108.91,226.6 118.66,217.7 C 122.74,213.96 126.11,209.46 128.28,204.35 C 128.57,204.5 129.16,204.79 129.46,204.93 L 128.07,205.34 C 128.02,217.29 121.53,228.15 113.82,236.85 C 105.58,246.09 95.54,253.47 85.2,260.18 C 76.28,266.96 67.67,274.66 62.09,284.52 C 61.56,278.01 63.1,271.52 62.43,265.01 C 61.07,251.77 59.85,238.11 63.42,225.09 C 65.43,217.55 69.52,210.62 75.15,205.2 z"
       id="path13"
       style="opacity:1;fill:#0a6aae" />
    <path
       d="M 548.78,218.63 C 552.4,220.85 554.69,224.5 557.25,227.78 C 574.61,248.64 579.35,279.16 569.43,304.37 C 565.68,312.63 562.05,321 559.77,329.81 C 558.44,334.2 557.85,338.76 556.57,343.17 C 553.91,327.58 544.08,314.71 534.09,302.99 C 525.99,293.22 517.27,283.67 511.84,272.07 C 508.43,264.57 505.65,256.76 504,248.68 C 514.17,264.26 531.97,272.21 543.8,286.23 C 547.5,290.55 549.99,295.74 552.03,301.02 C 553.72,305.66 553.55,310.83 555.81,315.28 C 556.05,312.17 555.39,309.11 555.07,306.04 C 553.11,287.74 554.14,269.25 556.78,251.08 C 557.31,239.84 555.49,227.95 548.78,218.63 z"
       id="path15"
       style="opacity:1;fill:#0a6aae" />
    <path
       d="M 51.96,229.99 C 54.2,227.16 56.29,224.15 59.1,221.85 C 55.93,227.1 53.1,232.68 52.27,238.84 C 49.21,258.68 57.62,278.19 55.39,298.06 C 54.93,304.83 53.95,311.59 53.97,318.38 C 55.93,316.26 55.65,313.15 56.33,310.52 C 57.7,301.94 62.14,294.19 67.7,287.64 C 75.26,278.84 84.41,271.64 93.38,264.35 C 97.69,260.87 101.3,256.53 103.9,251.64 C 102.53,261.71 98.99,271.4 94.39,280.43 C 84.83,296.75 70.84,309.97 61.41,326.38 C 57.79,332.58 55.21,339.36 53.78,346.39 C 51.72,324.67 36.48,306.73 34.86,284.93 C 34.61,276.73 34.55,268.39 36.58,260.38 C 39.27,249.23 44.97,239.02 51.96,229.99 z"
       id="path17"
       style="opacity:1;fill:#0a6aae" />
    <path
       d="M 145.52,244.4 C 146.97,240.49 148.24,236.52 149.98,232.73 C 150.59,238.28 149,243.7 148.14,249.13 C 145.33,265.09 144.79,281.71 148.7,297.54 C 151.46,306.83 154.79,315.94 158.42,324.93 C 160.33,331.83 165.38,337.1 168.78,343.25 C 172,349.12 177.09,353.52 181.31,358.62 C 187.18,365.23 194.67,369.97 201.61,375.33 C 208.9,381.25 217.89,384.39 225.99,388.97 C 230.46,391.7 235.46,393.38 240.24,395.49 C 243.17,395.66 242.25,392.21 241.17,390.68 C 233.69,378.69 227.39,366.01 219.97,353.98 C 218.59,351.69 217.13,349.42 216.13,346.92 C 212.33,336.18 208.77,325.33 206.32,314.19 C 204.15,295.89 205.07,277.44 204.89,259.06 C 205.04,255.22 204.43,251.31 205.37,247.55 C 207.53,257.58 207.35,268.03 209.91,278.02 C 214.13,297.45 220.88,316.34 230.15,333.93 C 237.45,345.1 245.02,356.13 253.64,366.34 C 260.98,373.66 268.29,381.02 275.65,388.33 C 282.31,393.32 287.07,400.23 292.67,406.29 C 299.17,419.47 302.33,434.35 301.63,449.06 C 300.24,455.43 299.05,461.96 295.57,467.61 C 294.18,471.54 291.11,474.32 288.24,477.18 C 284.49,482.64 278.32,485.54 273.64,490.09 C 272.14,487.35 272.17,484.09 270.68,481.36 C 268.94,477.63 265.99,474.7 263.18,471.79 C 255.12,467.38 247.04,462.95 238.58,459.33 C 224.15,450.99 209.16,443.43 196.06,433.02 C 189.51,427.57 182.38,422.76 176.66,416.39 C 173.66,412.93 169.48,410.7 166.79,406.95 C 161.58,400.23 155.68,394.01 151.2,386.75 C 147.99,381.28 143.83,376.31 141.64,370.3 C 137.99,361.65 133.02,353.32 131.78,343.88 C 129.14,332.45 129.88,320.63 129.76,308.99 C 129.19,299.41 132.66,290.28 134.17,280.93 C 136.3,268.28 141.69,256.56 145.52,244.4 z"
       id="path19"
       style="opacity:1;fill:#0a6aae" />
    <path
       d="M 580.32,284.46 C 593.45,311.03 589.83,343.9 575.01,369.02 C 564.49,382.82 551.94,394.99 541.81,409.11 C 542.78,398.48 544.09,387.38 540.54,377.07 C 532.5,355.7 525.4,333.76 522.59,311.01 C 521.8,306.27 522.07,301.47 522.36,296.71 C 527.4,315.89 543.42,329.38 550.66,347.53 C 553.78,354.97 554.3,363.16 553.79,371.13 C 553.36,376 551.48,380.57 550.78,385.39 C 551.77,384.47 552.73,383.46 552.92,382.06 C 556.13,370.66 558.17,358.89 562.63,347.87 C 568.48,334.36 576.48,321.61 579.75,307.09 C 581.51,299.68 581.58,291.95 580.32,284.46 z"
       id="path21"
       style="opacity:1;fill:#0a6aae" />
    <path
       d="M 29.41,287.93 C 27.97,295.59 28.08,303.54 30.14,311.07 C 34.7,328.4 46.04,342.95 51.16,360.06 C 53.92,368.56 54.75,377.59 58.09,385.91 C 58.51,387.01 59.19,387.94 60.1,388.71 C 58.18,381.99 56.21,375.14 56.75,368.06 C 57.63,350.01 67.61,334.16 77.88,319.92 C 82.41,313.97 84.95,306.86 87.15,299.8 C 88.56,312.04 85.53,324.16 83.65,336.17 C 79.99,352.51 74.03,368.2 69.19,384.2 C 66.62,393.38 67.82,402.97 68.95,412.26 C 65.89,409.18 63.96,405.22 61.08,401.99 C 50.53,388.87 36.66,377.99 29.75,362.27 C 23.71,346.06 20.17,328.44 22.59,311.14 C 24.18,303.24 25.92,295.24 29.41,287.93 z"
       id="path23"
       style="opacity:1;fill:#0a6aae" />
    <path
       d="M 526.7,354.84 C 524.27,375.96 535.82,395.96 532.83,417.05 C 531.53,427.37 526.72,436.75 521.07,445.31 C 523.32,444.22 524.63,442.01 526.17,440.15 C 534.13,430.14 541.41,419.49 550.74,410.65 C 562.15,400.43 574.33,390.45 582.13,377.03 C 585.43,371.52 587.34,365.33 588.44,359.04 C 590.49,372.52 588.64,386.55 582.91,398.94 C 574.45,417.55 559.16,432.24 542.14,443.15 C 528,451.63 513.54,459.61 499.79,468.73 C 502.22,463.82 505.29,459.22 507.01,453.99 C 517.04,427.04 512.39,397.34 520.82,370.03 C 522.38,364.81 524.78,359.92 526.7,354.84 z"
       id="path25"
       style="opacity:1;fill:#0a6aae" />
    <path
       d="M 84.09,370 C 84.47,366.25 84.13,362.47 84.21,358.71 C 97.65,386.89 94.24,419.02 101.2,448.79 C 102.86,456.87 107.9,463.6 111.24,470.99 C 89.19,457.59 65.34,446.47 46.32,428.69 C 33.59,416.88 24.26,400.89 22.29,383.48 C 21.56,376.63 21.5,369.68 22.42,362.84 C 22.81,370.94 26.42,378.49 31.1,384.98 C 44.13,402.78 63.95,414.28 76.61,432.42 C 80.71,437.75 84.33,443.64 89.7,447.85 C 88.7,445.75 87.4,443.83 86.09,441.93 C 79.29,431.31 76.47,418.4 77.5,405.89 C 78.34,393.69 83,382.16 84.09,370 z"
       id="path27"
       style="opacity:1;fill:#0a6aae" />
    <path
       d="M 494.3,423.32 C 498.79,417.58 503.13,411.68 508.3,406.54 C 498.88,424.56 500.78,445.76 493.66,464.51 C 488.65,477.49 478.7,487.71 468.28,496.56 C 474.35,494.92 478.44,489.9 483.49,486.52 C 500.34,474.53 520.32,468.33 538.39,458.54 C 551.65,451.58 563.76,441.4 570.54,427.82 C 568.08,443.4 559.13,457.15 548.29,468.27 C 534.87,481.85 518.25,492.31 500.1,498.25 C 481.93,503.37 462.82,504.23 444.74,509.79 C 456.14,500.94 464.01,488.39 469.24,475.1 C 476.4,457.34 481.4,438.05 494.3,423.32 z"
       id="path29"
       style="opacity:1;fill:#0a6aae" />
    <path
       d="M 102.08,409.22 C 112.65,420.77 122.94,432.89 129.91,447.02 C 137.15,462.89 141.25,480.31 151.21,494.87 C 155.44,501.19 160.89,506.6 166.9,511.22 C 144.25,504.67 119.76,505.67 97.96,496.04 C 78.51,486.5 60.66,472.56 49.16,453.97 C 44.93,447.09 41.78,439.52 40.2,431.59 C 44.53,439.62 50.42,446.85 57.78,452.29 C 78.61,468.11 105.42,473.07 126.51,488.48 C 131.78,492.48 137.3,496.28 143.51,498.68 C 138.28,493.85 132.42,489.66 127.85,484.15 C 123.69,479.04 119.88,473.54 117.51,467.35 C 110.13,448.58 111.79,427.22 102.08,409.22 z"
       id="path31"
       style="opacity:1;fill:#0a6aae" />
    <path
       d="M 415.77,503.68 C 433,488.89 449.22,472.56 468.83,460.86 C 458.31,473.38 454.22,490.02 443.21,502.2 C 438,508.08 431.08,512.13 423.9,515.13 C 418.69,517.15 413.11,518.01 407.96,520.2 C 413.72,520.24 419.4,519.08 425.05,518.03 C 447.57,513.82 470.76,515.05 493.19,510.22 C 506.26,507.46 518.88,501.54 528.17,491.78 C 520.49,506.42 506.84,516.98 492.36,524.39 C 476.93,532.29 459.33,535.68 442.06,534.19 C 418.28,532.51 395.5,524.66 371.86,521.99 C 387.39,518.65 403.47,514.28 415.77,503.68 z"
       id="path33"
       style="opacity:1;fill:#0a6aae" />
    <path
       d="M 142.19,462.9 C 160.77,474.03 176.63,488.91 193.07,502.86 C 206.14,514.42 223.32,519.69 240.16,522.82 C 235.99,523.89 231.64,523.88 227.42,524.66 C 205.48,529.42 183.62,536.03 160.97,536.02 C 142.96,536.2 124.98,530.94 109.81,521.26 C 99.2,514.52 89.68,505.71 83.25,494.83 C 90.91,502.12 100.29,507.52 110.48,510.38 C 135.07,517.62 161.1,514.84 186.14,519.25 C 192.13,520.05 198.05,522.04 204.16,521.45 C 200.76,519.84 197.02,519.29 193.39,518.44 C 184.86,516.06 176.6,512.04 170.37,505.63 C 158.16,493.37 153,476.2 142.19,462.9 z"
       id="path35"
       style="opacity:1;fill:#0a6aae" />
    <path
       d="M 215,537 C 232.02,530.31 249.52,523.99 267.89,522.5 C 278.09,521.54 288.38,522.45 298.41,524.41 C 301.55,525.12 304.63,526.66 307.93,526.33 C 314.84,523.25 322.5,522.7 329.95,522.11 C 350.87,520.89 372.02,525.02 391.02,533.82 C 403.51,538.03 415.65,543.85 428.87,545.44 C 446.93,547.77 465.97,545.01 481.85,535.79 C 469.16,549.51 451.46,558.18 433.11,561.17 C 407.97,564.88 382.6,556.04 361.85,542.21 C 353.51,537.33 345.68,530.71 335.84,529.23 C 329.93,528.73 323.91,528.87 318.08,530.09 C 341.2,539.84 362.71,553.3 381.65,569.74 C 378.1,573.21 374.11,576.17 370.12,579.11 C 351.57,561.34 331.65,544.17 307.96,533.66 C 303.37,533.37 299.13,536.26 295.02,538.11 C 275.54,549.02 257.3,562.63 242.87,579.78 C 238.84,576.79 234.82,573.8 230.78,570.82 C 246.52,556.59 264.14,544.4 283.25,535.15 C 286.87,533.25 290.77,531.92 294.32,529.87 C 283.19,526.49 271.35,529.87 261.72,535.76 C 247.62,544.4 233.96,554.36 217.95,559.19 C 200.32,564.72 180.76,565.28 163.37,558.57 C 151.27,554.12 139.28,547.92 130.77,538.01 C 148.31,547.94 169.57,549.81 189.12,545.91 C 198.15,544.24 206.46,540.21 215,537 z"
       id="path37"
       style="opacity:1;fill:#0a6aae" />
  </g>
</svg>
